<svg id="Layer_1" data-name="Layer 1" xmlns="http://www.w3.org/2000/svg" viewBox="0 0 219.05 223.4"><defs><style>.cls-1{fill:#132452;}.cls-2{fill:#fa8c41;}.cls-3{fill:#fff;}</style></defs><rect class="cls-1" x="-1.17" y="-1" width="221.4" height="225.4"/><polygon class="cls-2" points="161.61 174.54 123.89 192.67 123.89 24.41 114.91 16.92 114.91 206.95 170.59 180.18 170.59 154.31 161.61 154.31 161.61 174.54"/><path class="cls-2" d="M113.92,208.53V14.8l11,9.14V191.09l35.72-17.18V153.32h11v27.49Zm2-189.48V205.37l53.68-25.81V155.31h-7v19.85l-39.7,19.09V24.87Z"/><polygon class="cls-2" points="139.48 77.8 139.48 40.5 130.5 34.51 130.5 110.84 139.48 115.33 139.48 88.36 161.61 102.04 161.61 122.88 170.59 122.88 170.59 97.03 139.48 77.8"/><path class="cls-2" d="M171.58,123.88h-11V102.59L140.47,90.14v26.8l-11-5.49V32.65l11,7.31V77.25l31.11,19.23Zm-9-2h7V97.59L138.48,78.36V41l-7-4.66v73.85l7,3.5V86.58l24.12,14.9Z"/><polygon class="cls-3" points="57.44 102.18 83.68 87.65 83.68 115.4 92.66 121.39 92.66 58.53 83.68 64.52 83.68 77.39 48.46 96.89 48.46 131.75 94.26 152.71 94.26 192.61 57.44 174.56 57.44 154.31 48.46 154.31 48.46 180.16 103.24 207.01 103.24 146.94 57.44 125.99 57.44 102.18"/><path class="cls-3" d="M104.23,208.6,47.47,180.78V153.32h11v20.62L93.27,191V153.34l-45.8-21V96.3L82.69,76.8V64l11-7.31v66.58l-11-7.32V89.34L58.44,102.77v22.58l45.79,21ZM49.46,179.54l52.78,25.88V147.58l-45.79-21v-25L84.67,86v28.91l7,4.66V60.39l-7,4.66V78L49.46,97.47v33.64l45.79,21V194.2l-38.8-19V155.31h-7Z"/><polygon class="cls-3" points="98.91 48.35 98.91 125.88 107.89 133.36 107.89 40.87 98.91 48.35"/><path class="cls-3" d="M108.89,135.48l-11-9.14V47.89l11-9.14Zm-9-10.07,7,5.83V43l-7,5.83Z"/></svg>