<svg id="Layer_1" data-name="Layer 1" xmlns="http://www.w3.org/2000/svg" viewBox="0 0 159.47 223.4"><defs><style>.cls-1{fill:#fa8c41;}.cls-2{fill:#132452;}</style></defs><polygon class="cls-1" points="131.82 174.54 94.1 192.67 94.1 24.41 85.12 16.92 85.12 206.95 140.8 180.18 140.8 154.31 131.82 154.31 131.82 174.54"/><path class="cls-1" d="M84.13,208.53V14.8l11,9.14V191.09l35.72-17.18V153.32h11v27.49Zm2-189.48V205.37l53.68-25.81V155.31h-7v19.85l-39.7,19.09V24.87Z"/><polygon class="cls-1" points="109.69 77.8 109.69 40.5 100.71 34.51 100.71 110.84 109.69 115.33 109.69 88.36 131.82 102.04 131.82 122.88 140.8 122.88 140.8 97.03 109.69 77.8"/><path class="cls-1" d="M141.79,123.88h-11V102.59L110.68,90.14v26.8l-11-5.49V32.65l11,7.31V77.25l31.11,19.23Zm-9-2h7V97.59L108.69,78.36V41l-7-4.66v73.85l7,3.5V86.58l24.12,14.9Z"/><polygon class="cls-2" points="27.65 102.18 53.89 87.65 53.89 115.4 62.87 121.39 62.87 58.53 53.89 64.52 53.89 77.39 18.67 96.89 18.67 131.75 64.47 152.71 64.47 192.61 27.65 174.56 27.65 154.31 18.67 154.31 18.67 180.16 73.45 207.01 73.45 146.94 27.65 125.99 27.65 102.18"/><path class="cls-2" d="M74.44,208.6,17.68,180.78V153.32h11v20.62L63.48,191V153.34l-45.8-21V96.3L52.89,76.8V64l11-7.31v66.58l-11-7.32V89.34L28.65,102.77v22.58l45.79,21ZM19.67,179.54l52.78,25.88V147.58l-45.79-21v-25L54.88,86v28.91l7,4.66V60.39l-7,4.66V78L19.67,97.47v33.64l45.79,21V194.2l-38.8-19V155.31h-7Z"/><polygon class="cls-2" points="69.12 48.35 69.12 125.88 78.1 133.36 78.1 40.87 69.12 48.35"/><path class="cls-2" d="M79.1,135.48l-11-9.14V47.89l11-9.14Zm-9-10.07,7,5.83V43l-7,5.83Z"/></svg>