<svg id="Layer_1" data-name="Layer 1" xmlns="http://www.w3.org/2000/svg" viewBox="0 0 575.17 223.4"><defs><style>.cls-1{fill:#132452;}.cls-2{fill:#fff;}.cls-3{fill:#fa8c41;}</style></defs><rect class="cls-1" x="-6.09" y="-6.15" width="587.35" height="235.7"/><path class="cls-2" d="M156.83,129.32a10.44,10.44,0,0,1-4.49-3.49,9.23,9.23,0,0,1-1.7-5.38h7.28a4.93,4.93,0,0,0,1.47,3.39,5.12,5.12,0,0,0,3.66,1.26,5.55,5.55,0,0,0,3.74-1.16,3.9,3.9,0,0,0,1.35-3.1,3.41,3.41,0,0,0-.92-2.47,6.35,6.35,0,0,0-2.3-1.53,38,38,0,0,0-3.8-1.24,39.72,39.72,0,0,1-5.36-1.91,9.26,9.26,0,0,1-3.54-2.86,8.14,8.14,0,0,1-1.48-5.12,9.06,9.06,0,0,1,1.51-5.23,9.5,9.5,0,0,1,4.21-3.42,15.39,15.39,0,0,1,6.21-1.19,13.42,13.42,0,0,1,8.5,2.55,9.44,9.44,0,0,1,3.62,7.1h-7.47a4,4,0,0,0-1.48-3,5.56,5.56,0,0,0-3.66-1.14,4.66,4.66,0,0,0-3.17,1,3.86,3.86,0,0,0-1.19,3.08,3.06,3.06,0,0,0,.9,2.26,6.89,6.89,0,0,0,2.22,1.45c.89.37,2.15.8,3.76,1.28a40.72,40.72,0,0,1,5.38,1.94,9.72,9.72,0,0,1,3.59,2.91,8.09,8.09,0,0,1,1.5,5.09,9.63,9.63,0,0,1-1.4,5,9.94,9.94,0,0,1-4.12,3.71,14.08,14.08,0,0,1-6.45,1.38A16,16,0,0,1,156.83,129.32Z"/><path class="cls-2" d="M188,128.3a16.54,16.54,0,0,1-6.3-6.18,18.24,18.24,0,0,1,0-17.84A16.69,16.69,0,0,1,188,98.1a18.22,18.22,0,0,1,17.47,0,16.58,16.58,0,0,1,6.26,6.18,18.45,18.45,0,0,1,0,17.84,16.42,16.42,0,0,1-6.28,6.18,18.18,18.18,0,0,1-17.45,0Zm14.1-5.4a9.53,9.53,0,0,0,3.64-3.88,13.67,13.67,0,0,0,0-11.68,9.36,9.36,0,0,0-3.64-3.86,10.51,10.51,0,0,0-5.38-1.35,10.66,10.66,0,0,0-5.4,1.35,9.34,9.34,0,0,0-3.66,3.86,13.67,13.67,0,0,0,0,11.68,9.52,9.52,0,0,0,3.66,3.88,10.48,10.48,0,0,0,5.4,1.38A10.33,10.33,0,0,0,202.12,122.9Z"/><path class="cls-2" d="M225.78,96.36v20.89a7.19,7.19,0,0,0,1.79,5.26,8,8,0,0,0,10.13,0,7.15,7.15,0,0,0,1.8-5.26V96.36h6.83v20.89a13.54,13.54,0,0,1-1.86,7.3,11.88,11.88,0,0,1-5,4.48,15.84,15.84,0,0,1-6.95,1.5,15.45,15.45,0,0,1-6.86-1.5,11.47,11.47,0,0,1-4.88-4.48,14,14,0,0,1-1.79-7.3V96.36Z"/><path class="cls-2" d="M275.9,96.36v5.33h-9v28.5H260.1v-28.5h-9V96.36Z"/><path class="cls-2" d="M308.91,96.36v33.83h-6.78V115.7h-14.5v14.49h-6.78V96.36h6.78v14h14.5v-14Z"/><path class="cls-2" d="M322.39,101.64v8.77h11.39v5.24H322.39v9.16h12.84v5.38H315.6V96.31h19.63v5.33Z"/><path class="cls-2" d="M358.84,130.19,351.37,117h-3.2v13.18h-6.78V96.36h12.7a14.83,14.83,0,0,1,6.69,1.38,9.62,9.62,0,0,1,4.14,3.73,10.2,10.2,0,0,1,1.38,5.26,10.05,10.05,0,0,1-1.94,6,9.91,9.91,0,0,1-5.76,3.7l8.09,13.72ZM348.17,112h5.68a5.63,5.63,0,0,0,4.12-1.36,5.07,5.07,0,0,0,1.35-3.73,5,5,0,0,0-1.35-3.71,5.67,5.67,0,0,0-4.12-1.34h-5.68Z"/><path class="cls-2" d="M401.4,130.19h-6.79L379.25,107v23.22h-6.79V96.31h6.79l15.36,23.27V96.31h6.79Z"/><path class="cls-2" d="M421.69,104.28a16.08,16.08,0,0,1,6.15-6.15,17.48,17.48,0,0,1,8.75-2.21,17.23,17.23,0,0,1,9.94,2.91,15.21,15.21,0,0,1,6,8h-7.8a8.4,8.4,0,0,0-3.3-3.52,9.65,9.65,0,0,0-4.85-1.18,10.22,10.22,0,0,0-5.26,1.35,9.28,9.28,0,0,0-3.58,3.88,12.6,12.6,0,0,0-1.29,5.82A12.42,12.42,0,0,0,427.7,119a9.46,9.46,0,0,0,3.58,3.88,10,10,0,0,0,5.26,1.38,9.56,9.56,0,0,0,4.87-1.21,8.22,8.22,0,0,0,3.28-3.54h7.8a15.09,15.09,0,0,1-5.94,8.07,18.59,18.59,0,0,1-18.71.68,16.16,16.16,0,0,1-6.15-6.13,18.79,18.79,0,0,1,0-17.87Z"/><path class="cls-2" d="M465.09,96.36v33.83h-6.78V96.36Z"/><path class="cls-2" d="M494.81,96.36v5.33h-9v28.5H479v-28.5h-9V96.36Z"/><path class="cls-2" d="M506.54,96.36v33.83h-6.79V96.36Z"/><path class="cls-2" d="M520,101.64v8.77H531.4v5.24H520v9.16h12.85v5.38H513.23V96.31h19.63v5.33Z"/><path class="cls-2" d="M544.32,129.32a10.47,10.47,0,0,1-4.48-3.49,9.16,9.16,0,0,1-1.7-5.38h7.27a4.94,4.94,0,0,0,1.48,3.39,5.12,5.12,0,0,0,3.66,1.26,5.55,5.55,0,0,0,3.74-1.16,3.9,3.9,0,0,0,1.35-3.1,3.45,3.45,0,0,0-.92-2.47,6.35,6.35,0,0,0-2.3-1.53,37.46,37.46,0,0,0-3.81-1.24,40,40,0,0,1-5.35-1.91,9.26,9.26,0,0,1-3.54-2.86,8.14,8.14,0,0,1-1.48-5.12,9.13,9.13,0,0,1,1.5-5.23A9.52,9.52,0,0,1,544,97.06a15.37,15.37,0,0,1,6.2-1.19,13.45,13.45,0,0,1,8.51,2.55,9.4,9.4,0,0,1,3.61,7.1h-7.46a4,4,0,0,0-1.48-3,5.56,5.56,0,0,0-3.66-1.14,4.68,4.68,0,0,0-3.18,1,3.89,3.89,0,0,0-1.18,3.08,3.09,3.09,0,0,0,.89,2.26,6.94,6.94,0,0,0,2.23,1.45,39.38,39.38,0,0,0,3.76,1.28,40.72,40.72,0,0,1,5.38,1.94,9.72,9.72,0,0,1,3.59,2.91,8.09,8.09,0,0,1,1.5,5.09,9.54,9.54,0,0,1-1.41,5,9.82,9.82,0,0,1-4.12,3.71,14,14,0,0,1-6.44,1.38A16.06,16.06,0,0,1,544.32,129.32Z"/><path class="cls-2" d="M158.3,149.45v8.77h11.4v5.24H158.3v9.16h12.85V178H151.52V144.11h19.63v5.34Z"/><path class="cls-2" d="M206.24,178h-6.78l-15.37-23.22V178h-6.78V144.11h6.78l15.37,23.27V144.11h6.78Z"/><path class="cls-2" d="M236,144.16v5.34h-9V178h-6.78V149.5h-9v-5.34Z"/><path class="cls-2" d="M247.69,149.45v8.77h11.39v5.24H247.69v9.16h12.85V178H240.9V144.11h19.64v5.34Z"/><path class="cls-2" d="M284.14,178l-7.46-13.19h-3.2V178h-6.79V144.16h12.7a14.7,14.7,0,0,1,6.69,1.39,9.7,9.7,0,0,1,4.15,3.73,10.2,10.2,0,0,1,1.38,5.26,9.78,9.78,0,0,1-7.71,9.74L292,178Zm-10.66-18.23h5.67a5.63,5.63,0,0,0,4.12-1.35,5.08,5.08,0,0,0,1.36-3.74,5,5,0,0,0-1.36-3.71,5.67,5.67,0,0,0-4.12-1.33h-5.67Z"/><path class="cls-2" d="M321.15,159.72a9.45,9.45,0,0,1-4,3.83,14.65,14.65,0,0,1-6.91,1.46h-5.67v13h-6.79V144.16h12.46a15.11,15.11,0,0,1,6.69,1.36,9.49,9.49,0,0,1,4.14,3.73,10.9,10.9,0,0,1,.1,10.47Zm-7.08-1.4a4.9,4.9,0,0,0,1.38-3.69,5,5,0,0,0-1.35-3.75,5.76,5.76,0,0,0-4.17-1.34h-5.38v10.14h5.38A5.7,5.7,0,0,0,314.07,158.32Z"/><path class="cls-2" d="M344.69,178l-7.47-13.19H334V178h-6.79V144.16h12.7a14.7,14.7,0,0,1,6.69,1.39,9.59,9.59,0,0,1,4.15,3.73,10.2,10.2,0,0,1,1.38,5.26,9.78,9.78,0,0,1-7.71,9.74l8.1,13.72ZM334,159.77h5.67a5.62,5.62,0,0,0,4.12-1.35,5,5,0,0,0,1.36-3.74,5,5,0,0,0-1.36-3.71,5.66,5.66,0,0,0-4.12-1.33H334Z"/><path class="cls-2" d="M365.09,144.16V178h-6.78V144.16Z"/><path class="cls-2" d="M377.09,177.13a10.41,10.41,0,0,1-4.48-3.49,9.19,9.19,0,0,1-1.7-5.38h7.27a4.94,4.94,0,0,0,1.48,3.39,5.12,5.12,0,0,0,3.66,1.26,5.54,5.54,0,0,0,3.73-1.17,3.84,3.84,0,0,0,1.36-3.1,3.46,3.46,0,0,0-.92-2.47,6.53,6.53,0,0,0-2.3-1.53,38.72,38.72,0,0,0-3.81-1.23,41.54,41.54,0,0,1-5.36-1.92,9.41,9.41,0,0,1-3.54-2.86,8.16,8.16,0,0,1-1.47-5.11,9.19,9.19,0,0,1,1.5-5.24,9.54,9.54,0,0,1,4.21-3.41,15.22,15.22,0,0,1,6.21-1.19,13.51,13.51,0,0,1,8.51,2.54,9.47,9.47,0,0,1,3.61,7.1h-7.47a3.94,3.94,0,0,0-1.48-3,5.54,5.54,0,0,0-3.65-1.14,4.62,4.62,0,0,0-3.18,1,3.88,3.88,0,0,0-1.19,3.08,3.05,3.05,0,0,0,.9,2.25,6.78,6.78,0,0,0,2.23,1.45,38.93,38.93,0,0,0,3.76,1.29,39.84,39.84,0,0,1,5.38,1.94,9.5,9.5,0,0,1,3.58,2.91,8,8,0,0,1,1.51,5.09,9.54,9.54,0,0,1-1.41,5,10,10,0,0,1-4.12,3.71,14.08,14.08,0,0,1-6.45,1.38A16.18,16.18,0,0,1,377.09,177.13Z"/><path class="cls-2" d="M408.09,149.45v8.77h11.39v5.24H408.09v9.16h12.84V178H401.3V144.11h19.63v5.34Z"/><path class="cls-2" d="M432.4,177.13a10.5,10.5,0,0,1-4.49-3.49,9.25,9.25,0,0,1-1.69-5.38h7.27a4.94,4.94,0,0,0,1.48,3.39,5.12,5.12,0,0,0,3.66,1.26,5.54,5.54,0,0,0,3.73-1.17,3.88,3.88,0,0,0,1.36-3.1,3.43,3.43,0,0,0-.93-2.47,6.35,6.35,0,0,0-2.3-1.53,38.38,38.38,0,0,0-3.8-1.23,41,41,0,0,1-5.36-1.92,9.41,9.41,0,0,1-3.54-2.86,8.17,8.17,0,0,1-1.48-5.11,9.19,9.19,0,0,1,1.51-5.24,9.54,9.54,0,0,1,4.21-3.41,15.22,15.22,0,0,1,6.21-1.19,13.52,13.52,0,0,1,8.51,2.54,9.47,9.47,0,0,1,3.61,7.1h-7.47a4,4,0,0,0-1.48-3,5.56,5.56,0,0,0-3.66-1.14,4.61,4.61,0,0,0-3.17,1,3.88,3.88,0,0,0-1.19,3.08,3.05,3.05,0,0,0,.9,2.25,6.78,6.78,0,0,0,2.23,1.45,39.55,39.55,0,0,0,3.75,1.29,39.53,39.53,0,0,1,5.39,1.94,9.57,9.57,0,0,1,3.58,2.91,8.09,8.09,0,0,1,1.51,5.09,9.54,9.54,0,0,1-1.41,5,10,10,0,0,1-4.12,3.71,14.08,14.08,0,0,1-6.45,1.38A16.18,16.18,0,0,1,432.4,177.13Z"/><polygon class="cls-3" points="126.89 174.68 89.09 192.85 89.09 24.21 80.09 16.71 80.09 207.16 135.89 180.34 135.89 154.41 126.89 154.41 126.89 174.68"/><path class="cls-3" d="M79.1,208.75V14.58l11,9.16V191.27l35.8-17.22V153.41h11V181Zm2-189.91V205.58l53.81-25.87V155.4h-7v19.91L88.1,194.44V24.68Z"/><polygon class="cls-3" points="104.71 77.73 104.71 40.34 95.71 34.34 95.71 110.84 104.71 115.34 104.71 88.31 126.89 102.02 126.89 122.91 135.89 122.91 135.89 97 104.71 77.73"/><path class="cls-3" d="M136.89,123.91h-11V102.57L105.71,90.09V117l-11-5.5v-79l11,7.33V77.17l31.18,19.27Zm-9-2h7V97.56L103.72,78.28V40.87l-7-4.67v74l7,3.5V86.52l24.17,14.94Z"/><polygon class="cls-2" points="22.49 102.16 48.79 87.6 48.79 115.41 57.79 121.41 57.79 58.41 48.79 64.41 48.79 77.31 13.49 96.86 13.49 131.8 59.39 152.8 59.39 192.79 22.49 174.7 22.49 154.41 13.49 154.41 13.49 180.31 68.39 207.22 68.39 147.02 22.49 126.02 22.49 102.16"/><path class="cls-2" d="M69.39,208.82,12.5,180.93V153.41h11v20.67L58.4,191.19V153.44l-45.9-21V96.27L47.79,76.72V63.87l11-7.32v66.72l-11-7.33V89.29l-24.3,13.46v22.63l45.9,21Zm-54.9-29.13L67.4,205.63v-58l-45.9-21V101.57L49.79,85.91v29l7,4.67V60.27l-7,4.67v13L14.49,97.44v33.72l45.9,21v42.23L21.5,175.32V155.4h-7Z"/><polygon class="cls-2" points="64.06 48.21 64.06 125.91 73.06 133.41 73.06 40.71 64.06 48.21"/><path class="cls-2" d="M74.05,135.54l-11-9.16V47.74l11-9.16Zm-9-10.1,7,5.84V42.84l-7,5.84Z"/></svg>