<svg id="Layer_1" data-name="Layer 1" xmlns="http://www.w3.org/2000/svg" viewBox="0 0 575.17 223.4"><defs><style>.cls-1{fill:#132452;}.cls-2{fill:#fa8c41;}</style></defs><path class="cls-1" d="M161,128.76a10.17,10.17,0,0,1-4.34-3.38,8.92,8.92,0,0,1-1.64-5.21h7a4.74,4.74,0,0,0,1.43,3.28,4.91,4.91,0,0,0,3.54,1.22,5.36,5.36,0,0,0,3.61-1.12,3.75,3.75,0,0,0,1.32-3,3.37,3.37,0,0,0-.89-2.39,6.4,6.4,0,0,0-2.23-1.48c-.89-.35-2.12-.75-3.69-1.19a40.31,40.31,0,0,1-5.18-1.86,9.17,9.17,0,0,1-3.43-2.76,7.93,7.93,0,0,1-1.43-5,8.86,8.86,0,0,1,1.46-5.07,9.28,9.28,0,0,1,4.08-3.31,14.78,14.78,0,0,1,6-1.15,13,13,0,0,1,8.23,2.46,9.17,9.17,0,0,1,3.5,6.88h-7.23a3.9,3.9,0,0,0-1.43-2.94,5.41,5.41,0,0,0-3.54-1.1,4.52,4.52,0,0,0-3.08,1,3.78,3.78,0,0,0-1.15,3,3,3,0,0,0,.87,2.18,6.63,6.63,0,0,0,2.16,1.41c.86.36,2.07.77,3.64,1.24a38.8,38.8,0,0,1,5.21,1.88,9.46,9.46,0,0,1,3.47,2.82,7.8,7.8,0,0,1,1.45,4.92,9.22,9.22,0,0,1-1.36,4.88,9.64,9.64,0,0,1-4,3.59,13.61,13.61,0,0,1-6.24,1.34A15.6,15.6,0,0,1,161,128.76Z"/><path class="cls-1" d="M191.21,127.77a16.07,16.07,0,0,1-6.1-6,17.63,17.63,0,0,1,0-17.27,16.07,16.07,0,0,1,6.1-6,17.63,17.63,0,0,1,16.91,0,16,16,0,0,1,6.06,6,17.9,17.9,0,0,1,0,17.27,16,16,0,0,1-6.08,6,17.59,17.59,0,0,1-16.89,0Zm13.65-5.23a9.23,9.23,0,0,0,3.52-3.75,13.23,13.23,0,0,0,0-11.31,9.06,9.06,0,0,0-3.52-3.73,10.11,10.11,0,0,0-5.21-1.32,10.24,10.24,0,0,0-5.23,1.32,9,9,0,0,0-3.54,3.73,13.23,13.23,0,0,0,0,11.31,9.15,9.15,0,0,0,3.54,3.75,10.15,10.15,0,0,0,5.23,1.34A10,10,0,0,0,204.86,122.54Z"/><path class="cls-1" d="M227.76,96.85v20.22a7,7,0,0,0,1.73,5.09,7.71,7.71,0,0,0,9.81,0,6.93,6.93,0,0,0,1.74-5.09V96.85h6.61v20.22a13.06,13.06,0,0,1-1.8,7.06,11.39,11.39,0,0,1-4.84,4.34,15.31,15.31,0,0,1-6.73,1.46,14.94,14.94,0,0,1-6.64-1.46,11,11,0,0,1-4.72-4.34,13.51,13.51,0,0,1-1.73-7.06V96.85Z"/><path class="cls-1" d="M276.27,96.85V102h-8.72V129.6H261V102h-8.73V96.85Z"/><path class="cls-1" d="M308.23,96.85V129.6h-6.57v-14h-14v14h-6.57V96.85h6.57v13.56h14V96.85Z"/><path class="cls-1" d="M321.27,102v8.5h11v5.06h-11v8.87h12.44v5.21h-19V96.8h19V102Z"/><path class="cls-1" d="M356.56,129.6l-7.23-12.76h-3.1V129.6h-6.56V96.85H352a14.35,14.35,0,0,1,6.47,1.34,9.34,9.34,0,0,1,4,3.61,9.87,9.87,0,0,1,1.33,5.09,9.44,9.44,0,0,1-7.46,9.43l7.84,13.28ZM346.23,112h5.49a5.39,5.39,0,0,0,4-1.32,5.57,5.57,0,0,0,0-7.2,5.47,5.47,0,0,0-4-1.29h-5.49Z"/><path class="cls-1" d="M397.75,129.6h-6.56l-14.88-22.48V129.6h-6.57V96.8h6.57l14.88,22.52V96.8h6.56Z"/><path class="cls-1" d="M417.39,104.52a15.65,15.65,0,0,1,6-6,16.94,16.94,0,0,1,8.47-2.13,16.7,16.7,0,0,1,9.62,2.81,14.8,14.8,0,0,1,5.77,7.79h-7.55a8.21,8.21,0,0,0-3.19-3.4,9.3,9.3,0,0,0-4.7-1.15,9.89,9.89,0,0,0-5.09,1.31,9,9,0,0,0-3.47,3.76,13.36,13.36,0,0,0,0,11.24,9.19,9.19,0,0,0,3.47,3.75,9.72,9.72,0,0,0,5.09,1.34,9.21,9.21,0,0,0,4.72-1.18,8,8,0,0,0,3.17-3.42h7.55a14.63,14.63,0,0,1-5.75,7.81,16.72,16.72,0,0,1-9.64,2.79,16.94,16.94,0,0,1-8.47-2.13,15.67,15.67,0,0,1-6-5.94,18.23,18.23,0,0,1,0-17.29Z"/><path class="cls-1" d="M459.41,96.85V129.6h-6.57V96.85Z"/><path class="cls-1" d="M488.17,96.85V102h-8.72V129.6h-6.57V102h-8.73V96.85Z"/><path class="cls-1" d="M499.53,96.85V129.6H493V96.85Z"/><path class="cls-1" d="M512.57,102v8.5h11v5.06h-11v8.87H525v5.21H506V96.8h19V102Z"/><path class="cls-1" d="M536.1,128.76a10.23,10.23,0,0,1-4.34-3.38,8.92,8.92,0,0,1-1.64-5.21h7a4.74,4.74,0,0,0,1.43,3.28,4.91,4.91,0,0,0,3.54,1.22,5.39,5.39,0,0,0,3.62-1.12,3.77,3.77,0,0,0,1.31-3,3.37,3.37,0,0,0-.89-2.39,6.4,6.4,0,0,0-2.23-1.48c-.89-.35-2.12-.75-3.68-1.19a40,40,0,0,1-5.19-1.86,9.06,9.06,0,0,1-3.42-2.76,7.87,7.87,0,0,1-1.43-5,8.85,8.85,0,0,1,1.45-5.07,9.28,9.28,0,0,1,4.08-3.31,14.81,14.81,0,0,1,6-1.15A13,13,0,0,1,550,98.84a9.17,9.17,0,0,1,3.5,6.88h-7.23a3.9,3.9,0,0,0-1.43-2.94,5.41,5.41,0,0,0-3.54-1.1,4.49,4.49,0,0,0-3.07,1,3.74,3.74,0,0,0-1.15,3,2.94,2.94,0,0,0,.86,2.18,6.63,6.63,0,0,0,2.16,1.41c.86.36,2.07.77,3.64,1.24a38.3,38.3,0,0,1,5.21,1.88,9.46,9.46,0,0,1,3.47,2.82,7.8,7.8,0,0,1,1.45,4.92A9.22,9.22,0,0,1,552.5,125a9.52,9.52,0,0,1-4,3.59,13.61,13.61,0,0,1-6.24,1.34A15.6,15.6,0,0,1,536.1,128.76Z"/><path class="cls-1" d="M162.44,148.24v8.49h11v5.07h-11v8.87h12.44v5.21h-19v-32.8h19v5.16Z"/><path class="cls-1" d="M208.85,175.88h-6.57L187.4,153.4v22.48h-6.56v-32.8h6.56l14.88,22.52V143.08h6.57Z"/><path class="cls-1" d="M237.61,143.12v5.17h-8.73v27.59h-6.57V148.29h-8.72v-5.17Z"/><path class="cls-1" d="M249,148.24v8.49h11v5.07H249v8.87H261.4v5.21h-19v-32.8h19v5.16Z"/><path class="cls-1" d="M284.25,175.88,277,163.11h-3.1v12.77h-6.57V143.12h12.29a14.37,14.37,0,0,1,6.48,1.34,9.37,9.37,0,0,1,4,3.61,9.91,9.91,0,0,1,1.34,5.1A9.78,9.78,0,0,1,289.6,159,9.68,9.68,0,0,1,284,162.6l7.83,13.28Zm-10.32-17.65h5.49a5.42,5.42,0,0,0,4-1.31,4.91,4.91,0,0,0,1.31-3.61,4.81,4.81,0,0,0-1.31-3.59,5.5,5.5,0,0,0-4-1.29h-5.49Z"/><path class="cls-1" d="M320.08,158.19a9.15,9.15,0,0,1-3.9,3.7,14.17,14.17,0,0,1-6.69,1.41H304v12.58h-6.56V143.12h12.05a14.51,14.51,0,0,1,6.48,1.32,9.13,9.13,0,0,1,4,3.61,10.18,10.18,0,0,1,1.34,5.21A10.34,10.34,0,0,1,320.08,158.19Zm-6.85-1.36a4.79,4.79,0,0,0,1.33-3.57,4.9,4.9,0,0,0-1.31-3.64,5.57,5.57,0,0,0-4-1.29H304v9.81h5.21A5.56,5.56,0,0,0,313.23,156.83Z"/><path class="cls-1" d="M342.86,175.88l-7.23-12.77h-3.1v12.77H326V143.12h12.29a14.35,14.35,0,0,1,6.47,1.34,9.4,9.4,0,0,1,4,3.61,9.9,9.9,0,0,1,1.33,5.1,9.44,9.44,0,0,1-7.46,9.43l7.84,13.28Zm-10.33-17.65H338a5.39,5.39,0,0,0,4-1.31,4.87,4.87,0,0,0,1.32-3.61,4.78,4.78,0,0,0-1.32-3.59,5.47,5.47,0,0,0-4-1.29h-5.49Z"/><path class="cls-1" d="M362.61,143.12v32.76H356V143.12Z"/><path class="cls-1" d="M374.22,175a10.16,10.16,0,0,1-4.34-3.38,8.89,8.89,0,0,1-1.64-5.2h7a4.76,4.76,0,0,0,1.43,3.28,5,5,0,0,0,3.54,1.22,5.39,5.39,0,0,0,3.62-1.13,3.77,3.77,0,0,0,1.31-3,3.33,3.33,0,0,0-.89-2.39,6.26,6.26,0,0,0-2.23-1.48,37.34,37.34,0,0,0-3.68-1.2,38.68,38.68,0,0,1-5.19-1.85,9,9,0,0,1-3.42-2.77,7.87,7.87,0,0,1-1.44-4.95,8.86,8.86,0,0,1,1.46-5.07,9.28,9.28,0,0,1,4.08-3.31,15,15,0,0,1,6-1.15,13,13,0,0,1,8.23,2.47,9.13,9.13,0,0,1,3.5,6.87h-7.23a3.88,3.88,0,0,0-1.43-2.93,5.41,5.41,0,0,0-3.54-1.1,4.47,4.47,0,0,0-3.08,1,3.76,3.76,0,0,0-1.14,3,3,3,0,0,0,.86,2.18,6.45,6.45,0,0,0,2.16,1.4,38.29,38.29,0,0,0,3.64,1.25,37,37,0,0,1,5.21,1.88,9.33,9.33,0,0,1,3.47,2.81A7.81,7.81,0,0,1,392,166.4a9.24,9.24,0,0,1-1.36,4.88,9.58,9.58,0,0,1-4,3.59,13.61,13.61,0,0,1-6.24,1.33A15.6,15.6,0,0,1,374.22,175Z"/><path class="cls-1" d="M404.23,148.24v8.49h11v5.07h-11v8.87h12.44v5.21h-19v-32.8h19v5.16Z"/><path class="cls-1" d="M427.76,175a10.1,10.1,0,0,1-4.34-3.38,8.89,8.89,0,0,1-1.64-5.2h7a4.76,4.76,0,0,0,1.43,3.28,5,5,0,0,0,3.54,1.22,5.36,5.36,0,0,0,3.61-1.13,3.74,3.74,0,0,0,1.32-3,3.33,3.33,0,0,0-.89-2.39A6.26,6.26,0,0,0,435.6,163a36.79,36.79,0,0,0-3.69-1.2,39,39,0,0,1-5.18-1.85,9.1,9.1,0,0,1-3.43-2.77,7.93,7.93,0,0,1-1.43-4.95,8.86,8.86,0,0,1,1.46-5.07,9.28,9.28,0,0,1,4.08-3.31,14.93,14.93,0,0,1,6-1.15,13.06,13.06,0,0,1,8.24,2.47,9.13,9.13,0,0,1,3.5,6.87h-7.23a3.88,3.88,0,0,0-1.43-2.93A5.41,5.41,0,0,0,433,148a4.47,4.47,0,0,0-3.08,1,3.76,3.76,0,0,0-1.15,3,3,3,0,0,0,.87,2.18,6.45,6.45,0,0,0,2.16,1.4,38.29,38.29,0,0,0,3.64,1.25,36.8,36.8,0,0,1,5.2,1.88,9.28,9.28,0,0,1,3.48,2.81,7.81,7.81,0,0,1,1.45,4.93,9.24,9.24,0,0,1-1.36,4.88,9.71,9.71,0,0,1-4,3.59,13.61,13.61,0,0,1-6.24,1.33A15.6,15.6,0,0,1,427.76,175Z"/><polygon class="cls-2" points="132.04 172.66 95.45 190.25 95.45 27.01 86.73 19.75 86.73 204.11 140.75 178.14 140.75 153.04 132.04 153.04 132.04 172.66"/><path class="cls-2" d="M85.77,205.64V17.69l10.64,8.87V188.72l34.66-16.66v-20h10.64v26.67ZM87.7,21.81V202.57l52.08-25V154H133v19.26L94.48,191.79V27.46Z"/><polygon class="cls-2" points="110.57 78.81 110.57 42.62 101.86 36.81 101.86 110.86 110.57 115.22 110.57 89.06 132.04 102.33 132.04 122.55 140.75 122.55 140.75 97.47 110.57 78.81"/><path class="cls-2" d="M141.71,123.51H131.07V102.86L111.53,90.79v26l-10.64-5.32V35l10.64,7.09V78.28l30.18,18.65ZM133,121.59h6.78V98L109.6,79.35V43.14l-6.78-4.52v71.65l6.78,3.39V87.33L133,101.79Z"/><polygon class="cls-1" points="30.98 102.47 56.43 88.37 56.43 115.29 65.14 121.1 65.14 60.12 56.43 65.92 56.43 78.41 22.27 97.33 22.27 131.16 66.7 151.48 66.7 190.19 30.98 172.69 30.98 153.04 22.27 153.04 22.27 178.12 75.41 204.17 75.41 145.89 30.98 125.56 30.98 102.47"/><path class="cls-1" d="M76.37,205.71l-55.07-27V152.08H31.94v20l33.79,16.57V152.1L21.3,131.77v-35L55.47,77.84V65.41l10.64-7.1V122.9l-10.64-7.09V90L31.94,103v21.91l44.43,20.33ZM23.23,177.52l51.22,25.1V146.51L30,126.18V101.9L57.4,86.73v28l6.78,4.52V61.92L57.4,66.44V79L23.23,97.9v32.63l44.43,20.33v40.88L30,173.29V154H23.23Z"/><polygon class="cls-1" points="71.21 50.24 71.21 125.45 79.93 132.71 79.93 42.98 71.21 50.24"/><path class="cls-1" d="M80.89,134.77l-10.64-8.86V49.79l10.64-8.87ZM72.18,125,79,130.65V45l-6.78,5.65Z"/></svg>