<svg id="Layer_1" data-name="Layer 1" xmlns="http://www.w3.org/2000/svg" viewBox="0 0 697.01 223.4"><defs><style>.cls-1{fill:#132452;}.cls-2{fill:#fff;}.cls-3{fill:#fa8c41;}</style></defs><rect class="cls-1" x="-5.7" y="-6.15" width="708.41" height="235.7"/><path class="cls-2" d="M242.06,120.49a10.69,10.69,0,0,1-4.62-3.59,9.42,9.42,0,0,1-1.74-5.53h7.48a4.85,4.85,0,0,0,1.52,3.39,5.41,5.41,0,0,0,3.77,1.24,5.8,5.8,0,0,0,3.84-1.17,3.8,3.8,0,0,0,1.39-3.07,3.55,3.55,0,0,0-.94-2.54,6.64,6.64,0,0,0-2.37-1.57,39,39,0,0,0-3.92-1.27,43.83,43.83,0,0,1-5.51-2,9.62,9.62,0,0,1-3.64-3,8.33,8.33,0,0,1-1.52-5.26,9.43,9.43,0,0,1,1.54-5.39,9.86,9.86,0,0,1,4.34-3.51,15.73,15.73,0,0,1,6.39-1.22,13.87,13.87,0,0,1,8.75,2.61A9.74,9.74,0,0,1,260.54,96h-7.68a4,4,0,0,0-1.52-3,5.76,5.76,0,0,0-3.77-1.17,4.87,4.87,0,0,0-3.27,1,3.8,3.8,0,0,0-1.22,3,3.16,3.16,0,0,0,.92,2.32,7,7,0,0,0,2.3,1.5c.91.38,2.2.82,3.86,1.32a40.81,40.81,0,0,1,5.54,2,10,10,0,0,1,3.69,3,8.31,8.31,0,0,1,1.55,5.24,9.77,9.77,0,0,1-1.45,5.18,10.2,10.2,0,0,1-4.24,3.82,14.41,14.41,0,0,1-6.63,1.42A16.54,16.54,0,0,1,242.06,120.49Z"/><path class="cls-2" d="M274.16,119.45a17.15,17.15,0,0,1-6.49-6.36,18.83,18.83,0,0,1,0-18.36,17.15,17.15,0,0,1,6.49-6.36,18.79,18.79,0,0,1,18,0,17,17,0,0,1,6.43,6.36,19,19,0,0,1,0,18.36,16.93,16.93,0,0,1-6.46,6.36,18.73,18.73,0,0,1-17.95,0Zm14.51-5.37a9.69,9.69,0,0,0,3.74-4.06,14.57,14.57,0,0,0,0-12.25,9.61,9.61,0,0,0-3.74-4,10.78,10.78,0,0,0-5.54-1.4,10.93,10.93,0,0,0-5.56,1.4,9.6,9.6,0,0,0-3.76,4,14.57,14.57,0,0,0,0,12.25,9.67,9.67,0,0,0,3.76,4.06,10.75,10.75,0,0,0,5.56,1.43A10.6,10.6,0,0,0,288.67,114.08Z"/><path class="cls-2" d="M313,86.57v21.55a7.42,7.42,0,0,0,1.85,5.42,8.19,8.19,0,0,0,10.42,0,7.42,7.42,0,0,0,1.85-5.42V86.57h7v21.5a13.88,13.88,0,0,1-1.92,7.51,12.11,12.11,0,0,1-5.14,4.61,16.3,16.3,0,0,1-7.15,1.55,15.87,15.87,0,0,1-7.06-1.55,11.7,11.7,0,0,1-5-4.61,14.32,14.32,0,0,1-1.84-7.51V86.57Z"/><path class="cls-2" d="M364.59,86.57v5.64h-9.28v29.18h-7V92.21h-9.28V86.57Z"/><path class="cls-2" d="M398.56,86.57v34.82h-7V106.58H376.66v14.81h-7V86.57h7v14.32h14.91V86.57Z"/><path class="cls-2" d="M412.43,92.21v8.73h11.72v5.54H412.43v9.22h13.21v5.69h-20.2V86.52h20.2v5.69Z"/><path class="cls-2" d="M449.93,121.39l-7.68-13.57H439v13.57h-7V86.57h13.07A15.24,15.24,0,0,1,451.93,88a9.76,9.76,0,0,1,4.26,3.84,10.78,10.78,0,0,1-.57,11.62,10.29,10.29,0,0,1-5.94,3.82L458,121.39Zm-11-18.8h5.84a5.83,5.83,0,0,0,4.24-1.38,5.08,5.08,0,0,0,1.39-3.81A4.87,4.87,0,0,0,449,93.68a6,6,0,0,0-4.24-1.32H439Z"/><path class="cls-2" d="M493.73,121.39h-7L470.93,97.5v23.89h-7V86.52h7l15.82,24v-24h7Z"/><path class="cls-2" d="M514.83,94.78a16.55,16.55,0,0,1,6.33-6.34,18,18,0,0,1,9-2.26,17.64,17.64,0,0,1,10.22,3,15.63,15.63,0,0,1,6.14,8.28h-8a8.32,8.32,0,0,0-3.37-3.74,9.91,9.91,0,0,0-5-1.25,10.32,10.32,0,0,0-5.42,1.42,9.71,9.71,0,0,0-3.69,4A14.62,14.62,0,0,0,521,110a9.58,9.58,0,0,0,3.69,4,10.32,10.32,0,0,0,5.42,1.42,9.72,9.72,0,0,0,5-1.27,8.43,8.43,0,0,0,3.37-3.76h8a15.58,15.58,0,0,1-6.11,8.3,17.79,17.79,0,0,1-10.25,3,18,18,0,0,1-9-2.27,16.54,16.54,0,0,1-6.33-6.31,19.36,19.36,0,0,1,0-18.38Z"/><path class="cls-2" d="M559.5,86.62v34.82h-7V86.62Z"/><path class="cls-2" d="M590.07,86.62v5.64h-9.28v29.18h-7V92.26h-9.28V86.62Z"/><path class="cls-2" d="M602.14,86.62v34.82h-7V86.62Z"/><path class="cls-2" d="M616,92.26V101h11.72v5.54H616v9.22h13.22v5.69H609V86.57h20.2v5.69Z"/><path class="cls-2" d="M641,120.54a10.69,10.69,0,0,1-4.62-3.59,9.42,9.42,0,0,1-1.74-5.53h7.48a4.83,4.83,0,0,0,1.52,3.39,5.39,5.39,0,0,0,3.77,1.24,5.83,5.83,0,0,0,3.84-1.17,3.8,3.8,0,0,0,1.39-3.07,3.55,3.55,0,0,0-.94-2.54,6.82,6.82,0,0,0-2.37-1.57,39,39,0,0,0-3.92-1.27,43.83,43.83,0,0,1-5.51-2,9.54,9.54,0,0,1-3.64-2.95,8.33,8.33,0,0,1-1.52-5.26,9.43,9.43,0,0,1,1.54-5.39,9.86,9.86,0,0,1,4.34-3.51A15.7,15.7,0,0,1,647,86.13a13.87,13.87,0,0,1,8.75,2.61,9.77,9.77,0,0,1,3.72,7.31h-7.68a4,4,0,0,0-1.53-3,5.71,5.71,0,0,0-3.76-1.17,4.83,4.83,0,0,0-3.27,1,3.77,3.77,0,0,0-1.22,3,3.16,3.16,0,0,0,.92,2.32,7,7,0,0,0,2.3,1.5c.91.38,2.2.82,3.86,1.32a40.81,40.81,0,0,1,5.54,2,10,10,0,0,1,3.69,3,8.3,8.3,0,0,1,1.55,5.23,9.87,9.87,0,0,1-1.45,5.19,10.26,10.26,0,0,1-4.24,3.82,14.42,14.42,0,0,1-6.64,1.42A16.52,16.52,0,0,1,641,120.54Z"/><path class="cls-2" d="M243.58,137v34.82h-7V137Z"/><path class="cls-2" d="M280.24,171.86h-7L257.45,148v23.89h-7V137h7l15.81,23.94V137h7Z"/><path class="cls-2" d="M318.4,137l-12.77,34.82h-8.48L284.38,137h7.48l9.58,27.69L311,137Z"/><path class="cls-2" d="M329.57,142.68v8.73H341.3V157H329.57v9.23h13.22v5.68h-20.2V137h20.2v5.68Z"/><path class="cls-2" d="M354.59,171a10.75,10.75,0,0,1-4.62-3.59,9.4,9.4,0,0,1-1.74-5.53h7.48a4.85,4.85,0,0,0,1.52,3.39,5.41,5.41,0,0,0,3.77,1.24,5.8,5.8,0,0,0,3.84-1.17,3.81,3.81,0,0,0,1.4-3.06,3.56,3.56,0,0,0-.95-2.55,6.64,6.64,0,0,0-2.37-1.57,38.2,38.2,0,0,0-3.92-1.27,42.29,42.29,0,0,1-5.51-2,9.68,9.68,0,0,1-3.64-2.94,8.38,8.38,0,0,1-1.52-5.27,9.3,9.3,0,0,1,1.55-5.38,9.73,9.73,0,0,1,4.33-3.52,15.77,15.77,0,0,1,6.39-1.22,13.81,13.81,0,0,1,8.75,2.62,9.67,9.67,0,0,1,3.72,7.3h-7.68a4,4,0,0,0-1.52-3,5.71,5.71,0,0,0-3.77-1.18,4.87,4.87,0,0,0-3.27,1,3.8,3.8,0,0,0-1.22,3,3.16,3.16,0,0,0,.92,2.32,7,7,0,0,0,2.3,1.5c.91.38,2.2.82,3.86,1.32a40.19,40.19,0,0,1,5.54,2,9.88,9.88,0,0,1,3.69,3,8.31,8.31,0,0,1,1.55,5.24A9.77,9.77,0,0,1,372,167a10.2,10.2,0,0,1-4.24,3.82,14.41,14.41,0,0,1-6.63,1.42A16.36,16.36,0,0,1,354.59,171Z"/><path class="cls-2" d="M403.2,137v5.64h-9.28v29.18h-7V142.68h-9.27V137Z"/><path class="cls-2" d="M415.47,169.92a17.15,17.15,0,0,1-6.49-6.36,18.83,18.83,0,0,1,0-18.36,17.15,17.15,0,0,1,6.49-6.36,18.79,18.79,0,0,1,18,0,17,17,0,0,1,6.43,6.36,19,19,0,0,1,0,18.36,16.93,16.93,0,0,1-6.46,6.36,18.73,18.73,0,0,1-17.95,0ZM430,164.56a9.77,9.77,0,0,0,3.74-4.07,14.57,14.57,0,0,0,0-12.25,9.61,9.61,0,0,0-3.74-4,10.77,10.77,0,0,0-5.53-1.4,11,11,0,0,0-5.57,1.4,9.6,9.6,0,0,0-3.76,4,14.57,14.57,0,0,0,0,12.25,9.75,9.75,0,0,0,3.76,4.07,10.88,10.88,0,0,0,5.57,1.42A10.68,10.68,0,0,0,430,164.56Z"/><path class="cls-2" d="M465.4,171.86l-7.68-13.56h-3.3v13.56h-7V137h13.07a15.21,15.21,0,0,1,6.88,1.43,10,10,0,0,1,4.27,3.84,10.81,10.81,0,0,1-.58,11.62,10.25,10.25,0,0,1-5.93,3.82l8.33,14.11Zm-11-18.8h5.84a5.84,5.84,0,0,0,4.24-1.37,5.13,5.13,0,0,0,1.4-3.82,4.88,4.88,0,0,0-1.4-3.72,6,6,0,0,0-4.24-1.32h-5.84Z"/><path class="cls-2" d="M484.88,171a10.69,10.69,0,0,1-4.62-3.59,9.4,9.4,0,0,1-1.74-5.53H486a4.81,4.81,0,0,0,1.52,3.39,5.39,5.39,0,0,0,3.77,1.24,5.81,5.81,0,0,0,3.84-1.17,3.8,3.8,0,0,0,1.39-3.06,3.55,3.55,0,0,0-.94-2.55,6.82,6.82,0,0,0-2.37-1.57,39,39,0,0,0-3.92-1.27,42.29,42.29,0,0,1-5.51-2,9.61,9.61,0,0,1-3.64-2.94,8.38,8.38,0,0,1-1.52-5.27,9.37,9.37,0,0,1,1.54-5.38,9.82,9.82,0,0,1,4.34-3.52,15.7,15.7,0,0,1,6.39-1.22,13.81,13.81,0,0,1,8.75,2.62,9.7,9.7,0,0,1,3.72,7.3h-7.68a4,4,0,0,0-1.53-3,5.66,5.66,0,0,0-3.76-1.18,4.85,4.85,0,0,0-3.27,1,3.8,3.8,0,0,0-1.22,3,3.16,3.16,0,0,0,.92,2.32,7,7,0,0,0,2.3,1.5c.91.38,2.2.82,3.86,1.32a40.68,40.68,0,0,1,5.54,2,9.88,9.88,0,0,1,3.69,3,8.31,8.31,0,0,1,1.55,5.24,9.86,9.86,0,0,1-1.45,5.18,10.26,10.26,0,0,1-4.24,3.82,14.42,14.42,0,0,1-6.64,1.42A16.35,16.35,0,0,1,484.88,171Z"/><polygon class="cls-2" points="198.6 96.86 198.6 157.78 198.26 157.82 183.99 159.6 193.09 169.27 180.13 179.77 163.35 166.03 163.35 69.27 198.6 96.86"/><polygon class="cls-3" points="154.82 58.68 154.82 76.21 130.61 94.48 130.61 139.21 121.02 131.37 119.26 129.93 119.26 23.11 154.82 58.68"/><polygon class="cls-3" points="105.87 127.69 105.87 140.61 77.61 164.11 77.61 113.31 49.35 135.11 49.35 94.75 87.6 61.74 87.6 118.39 105.87 127.69"/><polygon class="cls-3" points="198.61 160.59 189.8 161.7 197.2 169.53 180.13 183.38 163.34 169.64 130.62 142.84 119.26 133.53 119.01 133.32 102.28 147.23 77.62 167.73 62.88 179.99 62.85 180.01 54.45 186.66 37.1 200.29 49.35 200.29 59.36 200.29 60.48 200.29 61.06 200.29 77.62 186.66 105.87 163.4 119.26 152.39 119.71 152.01 178.27 200.18 204.12 179.22 211.5 187.07 219.66 157.97 198.61 160.59"/><polyline class="cls-2" points="105.87 127.69 77.61 113.31 77.61 164.11 105.87 140.61"/></svg>